<svg width="1080" height="1080" viewBox="0 0 1080 1080" fill="none" xmlns="http://www.w3.org/2000/svg">
<g clip-path="url(#clip0_227_76)">
<path d="M552.398 343.118L836.699 278.543C823.12 323.392 805.586 373.966 773.37 409.395C728.214 459.06 656.39 477.575 595.123 499.345C591.31 500.7 587.171 502.054 583.295 503.126L532.918 464.133C526.28 467.565 516.759 472.879 510.17 475.791C506.709 472.952 485.304 455.082 482.691 453.792L481.808 454.237C478.431 457.234 474.183 459.951 470.517 462.64C453.719 474.958 436.291 486.647 419.663 499.178C438.565 490.988 458.33 479.726 476.769 471.934C481.55 476.446 486.494 481.238 491.369 485.612C460.133 500.971 426.315 516.064 394.604 530.787L396.263 531.578C399.711 530.513 403.453 529.089 406.882 527.866L481.468 501.778C492.643 497.857 507.724 492.056 518.844 488.824L555.625 510.989C529.558 522.34 501.326 533.355 474.909 544.177L327.853 604.41C332.847 587.693 338.936 566.441 344.618 550.172C347.2 541.139 350.284 532.274 352.867 523.17C370.225 472.119 378.966 410.863 428.308 379.483C459.054 359.929 497.264 353.507 532.569 347.172L537.463 346.35C540.406 345.808 543.485 345.114 546.428 344.496L552.398 343.118Z" fill="white"/>
<path d="M396.263 531.578C399.711 530.513 403.453 529.089 406.882 527.866C407.38 530.065 407.015 529.991 408.32 531.436C412.172 531.23 411.692 527.297 415.345 529.748C416.248 531.294 415.701 549.566 415.16 552.229C413.599 559.907 406.191 558.958 400.245 558.051C397.982 556.1 396.284 555.093 395.916 552.081L396.652 551.338C401.535 551.348 405.007 554.381 408.581 552.488C409.425 550.531 409.56 550.378 409.627 548.3L409.226 547.805C405.906 548.886 402.536 550.062 399.108 548.49C397.514 547.741 396.235 546.449 395.498 544.852C394.522 542.684 395.315 535.428 395.663 532.881L395.022 532.211L396.263 531.578Z" fill="white"/>
<path d="M402.834 535.138C409.295 534.864 412.395 539.003 407.258 544.034C405.184 544.715 404.92 544.546 402.907 543.607C400.354 540.744 401.136 538.149 402.834 535.138Z" fill="white"/>
<path d="M371.801 529.659C373.206 529.675 374.61 529.722 376.012 529.812C381.993 535.059 381.102 525.04 390.748 532.528L394.604 530.787L396.263 531.578L395.022 532.211L391.831 533.319C391.704 536.984 392.129 546.122 391.471 549.028C390.145 550.014 389.655 549.629 387.581 549.635C383.616 546.729 387.543 534.732 381.617 534.12C376.345 536.409 377.813 544.293 377.791 549.434L371.477 549.439C371.438 543.032 371.689 536.092 371.801 529.659Z" fill="white"/>
<path d="M394.604 530.787L396.263 531.578L395.022 532.211L391.831 533.319C389.088 534.326 386.493 535.143 383.71 536.019C386.008 534.832 388.422 533.677 390.748 532.528L394.604 530.787Z" fill="#E4E3E3"/>
<path d="M546.428 344.496L552.398 343.118C551.58 346.863 551.327 347.542 549.286 350.757L558.256 350.622C558.172 353.256 558.119 354.329 558.451 356.905C553.959 356.943 535.064 357.499 532.111 356.299C531.045 349.641 535.301 351.724 532.569 347.172L537.463 346.35C540.406 345.808 543.485 345.114 546.428 344.496Z" fill="white"/>
<path d="M537.463 346.35C540.406 345.808 543.486 345.114 546.428 344.496C546.697 352.6 540.047 353.266 537.463 346.35Z" fill="white"/>
<path d="M352.867 523.17C354.415 523.41 356.073 523.369 357.053 524.209C357.332 528.056 357.938 546.66 356.783 549.424C352.021 551.575 353.26 547.451 348.871 547.884C347.164 549.45 346.868 549.603 344.618 550.173C347.201 541.139 350.284 532.274 352.867 523.17Z" fill="white"/>
<path d="M481.809 454.237C481.586 452.853 481.266 452.778 482.22 451.665C487.773 445.191 494.842 439.258 500.571 433.053L501.468 432.94C502.014 436.441 485.645 449.019 482.692 453.792L481.809 454.237Z" fill="white"/>
<path d="M539.736 394.567C551.675 393.442 553.943 398.988 549.55 408.904C550.436 409.334 550.077 409.184 550.984 409.532L551.612 409.77C552.166 411.487 551.749 413.569 551.596 415.498C542.684 415.327 530.597 417.869 524.03 411.54C521.52 405.711 523.659 392.575 530.524 395.913C531.41 399.815 526.373 403.377 529.416 408.224C531.267 409.278 531.23 409.173 533.419 409.256C534.273 404.04 526.981 398.371 539.736 394.567Z" fill="white"/>
<path d="M540.127 400.933C542.352 399.869 545.015 400.801 546.096 403.018C547.177 405.236 546.265 407.909 544.055 409.006C541.825 410.115 539.114 409.192 538.023 406.951C536.931 404.709 537.875 402.008 540.127 400.933Z" fill="white"/>
<path d="M702.401 323.539L702.976 323.976C703.988 325.669 703.846 371.656 703.909 376.954C709.204 376.965 753.669 376.584 755.679 377.829C750.363 379.33 710.817 379.183 703.751 378.702C703.619 396.143 703.614 413.585 703.746 431.025L702.749 431.129L702.069 430.551C701.32 414.916 701.874 394.603 701.847 378.745C695.519 378.867 651.966 379.43 648.96 377.968C654.265 376.308 693.452 377.032 701.889 376.954L701.842 343.741C701.837 338.509 701.605 328.351 702.401 323.539Z" fill="white"/>
<path d="M532.074 371.226L551.997 371.216C551.865 374.817 552.567 376.062 549.308 377.932C554.418 388.33 552.145 391.273 540.659 391.423C537.901 391.403 535.033 391.592 532.269 391.723L532.311 385.383C537.49 385.527 544.15 386.332 547.847 381.974C547.662 376.392 535.913 377.468 532.016 377.586L532.074 371.226Z" fill="white"/>
<path d="M578.554 431.146C582.356 432.685 628.931 479.425 632.934 484.913C632.644 484.951 631.463 485.104 631.252 484.908C614.345 469.245 598.092 452.116 581.776 435.744C580.078 434.039 579.282 432.731 578.554 431.146Z" fill="white"/>
<path d="M532.111 360.764C538.597 360.885 545.115 361.086 551.596 360.852C551.612 362.97 551.733 365.198 551.812 367.324C545.532 367.136 538.608 367.339 532.153 367.219L532.111 360.764Z" fill="white"/>
<path d="M361.353 529.822C363.538 529.812 365.213 529.622 367.257 530.371C367.949 534.352 367.476 544.314 367.842 549.497L361.404 549.45C361.161 543.27 361.332 536.071 361.353 529.822Z" fill="white"/>
<path d="M556.928 359.813C561.737 361.736 560.646 364.626 558.531 368.171C553.115 366.748 552.377 363.159 556.928 359.813Z" fill="white"/>
<path d="M363.713 520.987C366.63 521.472 368.044 521.844 367.944 525.193C366.656 527.23 367.169 526.57 364.553 527.665C361.916 526.89 360.925 526.22 360.887 523.462C361.746 521.779 362.028 521.842 363.713 520.987Z" fill="white"/>
<path d="M625.483 635.354C621.607 567.896 657.271 511.898 706.899 469.566C710.649 486.526 707.11 513.722 703.139 530.924L701.736 538.17L700.729 542.078L698.989 549.83C682.979 608.75 653.02 685.31 597.486 718.717C582.525 727.719 568.028 729.222 551.496 732.881L545.659 733.957L538.323 735.476L530.703 737.042L245.002 795.556C255.712 735.328 279.316 682.641 333.279 649.498C409.683 602.58 513.637 608.85 597.38 628.066L597.934 628.209C606.836 630.028 616.76 632.876 625.483 635.354Z" fill="white"/>
<path d="M524.849 723.083C528.957 723.031 548.775 722.139 551.127 724.112C551.575 725.641 550.241 728.916 549.698 730.64C550.294 732.444 549.782 731.668 551.496 732.881L545.658 733.957L538.323 735.476L530.703 737.042C531.072 733.852 532.058 732.069 533.461 729.306L524.799 729.327L524.849 723.083Z" fill="white"/>
<path d="M538.323 735.476L536.963 734.521C536.456 732.391 536.409 733.43 537.226 731.299C540.749 727.919 545.136 728.325 545.658 733.957L538.323 735.476Z" fill="white"/>
<path d="M698.989 549.83C694.391 549.587 690.736 549.292 687.909 545.131C686.359 542.816 685.842 539.958 686.486 537.242C687.071 534.568 688.795 532.29 691.205 530.993C695.572 528.63 698.736 529.759 703.139 530.924L701.736 538.17L700.729 542.078L698.989 549.83Z" fill="white"/>
<path d="M700.729 542.078C700.297 542.368 699.869 542.653 699.432 542.932C689.882 549.049 689.491 528.035 701.736 538.17L700.729 542.078Z" fill="white"/>
<path d="M597.38 628.066L597.934 628.209C596.895 631.294 581.766 646.307 579.361 646.766C581.259 642.895 593.742 630.687 597.38 628.066Z" fill="white"/>
<path d="M531.52 664.501C540.174 664.585 562.881 661.294 560.772 674.979C560.292 678.059 557.318 684.234 554.017 685.035L552.983 684.36C551.506 680.727 555.029 678.338 555.029 673.175C553.605 671.799 551.016 669.948 548.949 670.518L548.928 671.556C556.031 682.167 546.576 685.985 537.015 685.42C526.369 678.976 532.169 677.252 533.677 670.971L531.831 670.512C531.267 668.651 531.499 666.531 531.52 664.501Z" fill="white"/>
<path d="M539.267 670.649C545.294 670.323 548.875 674.763 543.006 679.261C536.467 679.208 534.057 675.775 539.267 670.649Z" fill="white"/>
<path d="M377.466 648.38C377.611 648.506 377.77 648.617 377.902 648.759C379.412 650.373 378.753 696.326 378.778 701.963C386.84 701.947 425.239 701.42 430.754 702.812C427.363 704.684 385.539 703.978 378.898 703.993C378.701 711.935 379.47 753.205 377.862 756.928C376.289 752.646 376.82 710.896 376.796 703.941C369.802 703.946 327.085 704.7 324.009 702.717C325.871 701.504 371.508 701.905 376.873 701.895C376.723 691.237 376.897 680.279 376.83 669.605C376.8 664.775 376.623 652.63 377.466 648.38Z" fill="white"/>
<path d="M672.727 524.246C676.023 524.3 677.252 524.681 680.331 525.654C681.755 527.074 683.395 529.042 683.875 531.019L683.227 531.584C679.725 531.99 678.618 531.431 675.49 529.685L674.847 529.321C672.374 529.4 672.88 529 671.361 530.281C672.057 532.132 677.647 535.059 679.625 536.335C687.482 541.419 685.937 547.246 677.03 549.587C672.69 549.603 667.992 548.553 665.355 544.751C665.023 542.747 664.922 543.707 665.74 541.777C670.09 540.269 674.093 545.674 677.136 544.034C677.299 537.047 667.87 539.815 665.924 534.69C663.298 527.781 667.132 525.549 672.727 524.246Z" fill="white"/>
<path d="M540.295 688.41C544.108 688.6 547.515 687.588 550.378 689.291C551.491 690.884 551.138 692.46 551.064 694.496C546.128 694.702 538.924 693.162 536.235 697.792C535.929 699.801 536.636 700.592 537.616 702.406C541.329 702.496 546.455 701.974 550.104 702.744C551.022 702.939 550.869 703.297 551.407 704.489C551.259 706.034 551.312 707.331 550.499 708.613C546.254 709.109 535.945 708.797 531.241 708.755C531.193 706.688 531.22 705.09 531.331 703.028C532.28 702.438 532.538 702.343 533.577 702.021C533.53 697.243 525.053 689.808 540.295 688.41Z" fill="white"/>
<path d="M533.894 712.705L550.969 712.478C550.99 714.451 551.407 717.514 550.457 718.949L549.097 719.149L531.547 719.06C531.462 716.544 531.035 714.988 532.137 713L533.894 712.705Z" fill="white"/>
<path d="M524.223 712.22C525.472 712.225 525.775 712.341 527.007 712.626C529.896 715.104 529.327 716.702 527.36 719.571C521.768 719.909 522.623 715.816 524.223 712.22Z" fill="white"/>
<path d="M592.887 521.552C604.953 521.101 604.974 534.104 593.736 538.803C581.47 539.077 581.818 526.083 592.887 521.552Z" fill="white"/>
<path d="M510.552 540.069C523.274 540.09 522.168 553.569 510.673 557.376C498.92 556.965 499.704 544.361 510.552 540.069Z" fill="white"/>
<path d="M554.934 530.555C567.127 529.543 567.728 542.03 557.334 547.33C544.583 548.896 544.039 535.808 554.934 530.555Z" fill="white"/>
</g>
<defs>
<clipPath id="clip0_227_76">
<rect width="1080" height="1080" fill="white"/>
</clipPath>
</defs>
</svg>
